999
DXF created by Inkscape
  0
SECTION
  2
HEADER
  9
$ACADVER
  1
AC1014
  9
$HANDSEED
  5
FFFF
  9
$MEASUREMENT
 70
     1
  0
ENDSEC
  0
SECTION
  2
TABLES
  0
TABLE
  2
VPORT
  5
8
330
0
100
AcDbSymbolTable
 70
     4
  0
VPORT
  5
2E
330
8
100
AcDbSymbolTableRecord
100
AcDbViewportTableRecord
  2
*ACTIVE
 70
     0
 10
0.0
 20
0.0
 11
1.0
 21
1.0
 12
210.0
 22
148.5
 13
0.0
 23
0.0
 14
10.0
 24
10.0
 15
10.0
 25
10.0
 16
0.0
 26
0.0
 36
1.0
 17
0.0
 27
0.0
 37
0.0
 40
341.0
 41
1.24
 42
50.0
 43
0.0
 44
0.0
 50
0.0
 51
0.0
 71
     0
 72
   100
 73
     1
 74
     3
 75
     0
 76
     0
 77
     0
 78
     0
  0
ENDTAB
  0
TABLE
  2
LTYPE
  5
5
330
0
100
AcDbSymbolTable
 70
     1
  0
LTYPE
  5
14
330
5
100
AcDbSymbolTableRecord
100
AcDbLinetypeTableRecord
  2
BYBLOCK
 70
     0
  3

 72
    65
 73
     0
 40
0.0
  0
LTYPE
  5
15
330
5
100
AcDbSymbolTableRecord
100
AcDbLinetypeTableRecord
  2
BYLAYER
 70
     0
  3

 72
    65
 73
     0
 40
0.0
  0
LTYPE
  5
16
330
5
100
AcDbSymbolTableRecord
100
AcDbLinetypeTableRecord
  2
CONTINUOUS
 70
     0
  3
Solid line
 72
    65
 73
     0
 40
0.0
  0
ENDTAB
  0
TABLE
  2
LAYER
  5
2
100
AcDbSymbolTable
 70
4
  0
LAYER
  5
50
100
AcDbSymbolTableRecord
100
AcDbLayerTableRecord
  2
0
 70
0
  6
CONTINUOUS
  0
LAYER
  5
51
100
AcDbSymbolTableRecord
100
AcDbLayerTableRecord
  2
Base
 70
0
  6
CONTINUOUS
  0
LAYER
  5
52
100
AcDbSymbolTableRecord
100
AcDbLayerTableRecord
  2
Holes
 70
0
  6
CONTINUOUS
  0
LAYER
  5
53
100
AcDbSymbolTableRecord
100
AcDbLayerTableRecord
  2
Motors
 70
0
  6
CONTINUOUS
  0
ENDTAB
  0
TABLE
  2
STYLE
  5
3
330
0
100
AcDbSymbolTable
 70
     1
  0
STYLE
  5
11
330
3
100
AcDbSymbolTableRecord
100
AcDbTextStyleTableRecord
  2
STANDARD
 70
     0
 40
0.0
 41
1.0
 50
0.0
 71
     0
 42
2.5
  3
txt
  4

  0
ENDTAB
  0
TABLE
  2
VIEW
  5
6
330
0
100
AcDbSymbolTable
 70
     0
  0
ENDTAB
  0
TABLE
  2
UCS
  5
7
330
0
100
AcDbSymbolTable
 70
     0
  0
ENDTAB
  0
TABLE
  2
APPID
  5
9
330
0
100
AcDbSymbolTable
 70
     2
  0
APPID
  5
12
330
9
100
AcDbSymbolTableRecord
100
AcDbRegAppTableRecord
  2
ACAD
 70
     0
  0
ENDTAB
  0
TABLE
  2
DIMSTYLE
  5
A
330
0
100
AcDbSymbolTable
 70
     1
  0
DIMSTYLE
105
27
330
A
100
AcDbSymbolTableRecord
100
AcDbDimStyleTableRecord
  2
ISO-25
 70
     0
  3

  4

  5

  6

  7

 40
1.0
 41
2.5
 42
0.625
 43
3.75
 44
1.25
 45
0.0
 46
0.0
 47
0.0
 48
0.0
140
2.5
141
2.5
142
0.0
143
0.03937007874016
144
1.0
145
0.0
146
1.0
147
0.625
 71
     0
 72
     0
 73
     0
 74
     0
 75
     0
 76
     0
 77
     1
 78
     8
170
     0
171
     3
172
     1
173
     0
174
     0
175
     0
176
     0
177
     0
178
     0
270
     2
271
     2
272
     2
273
     2
274
     3
340
11
275
     0
280
     0
281
     0
282
     0
283
     0
284
     8
285
     0
286
     0
287
     3
288
     0
  0
ENDTAB
  0
TABLE
  2
BLOCK_RECORD
  5
1
330
0
100
AcDbSymbolTable
 70
     1
  0
BLOCK_RECORD
  5
1F
330
1
100
AcDbSymbolTableRecord
100
AcDbBlockTableRecord
  2
*MODEL_SPACE
  0
BLOCK_RECORD
  5
1B
330
1
100
AcDbSymbolTableRecord
100
AcDbBlockTableRecord
  2
*PAPER_SPACE
  0
ENDTAB
  0
ENDSEC
  0
SECTION
  2
BLOCKS
  0
BLOCK
  5
20
330
1F
100
AcDbEntity
  8
0
100
AcDbBlockBegin
  2
*MODEL_SPACE
 70
     0
 10
0.0
 20
0.0
 30
0.0
  3
*MODEL_SPACE
  1

  0
ENDBLK
  5
21
330
1F
100
AcDbEntity
  8
0
100
AcDbBlockEnd
  0
BLOCK
  5
1C
330
1B
100
AcDbEntity
 67
     1
  8
0
100
AcDbBlockBegin
  2
*PAPER_SPACE
  1

  0
ENDBLK
  5
1D
330
1B
100
AcDbEntity
 67
     1
  8
0
100
AcDbBlockEnd
  0
ENDSEC
  0
SECTION
  2
ENTITIES
  0
LINE
  5
100
100
AcDbEntity
  8
Base
 62
7
100
AcDbLine
 10
0.158187
 20
99.841825
 30
0.0
 11
181.874597
 21
99.841825
 31
0.0
  0
LINE
  5
101
100
AcDbEntity
  8
Base
 62
7
100
AcDbLine
 10
181.874597
 20
99.841825
 30
0.0
 11
181.874597
 21
0.158215
 31
0.0
  0
LINE
  5
102
100
AcDbEntity
  8
Base
 62
7
100
AcDbLine
 10
181.874597
 20
0.158215
 30
0.0
 11
0.158187
 21
0.158215
 31
0.0
  0
LINE
  5
103
100
AcDbEntity
  8
Base
 62
7
100
AcDbLine
 10
0.158187
 20
0.158215
 30
0.0
 11
0.158187
 21
99.841825
 31
0.0
  0
LINE
  5
104
100
AcDbEntity
  8
Holes
 62
7
100
AcDbLine
 10
7.006002
 20
67.808200
 30
0.0
 11
7.664466
 21
67.535455
 31
0.0
  0
LINE
  5
105
100
AcDbEntity
  8
Holes
 62
7
100
AcDbLine
 10
7.664466
 20
67.535455
 30
0.0
 11
7.937209
 21
66.876991
 31
0.0
  0
LINE
  5
106
100
AcDbEntity
  8
Holes
 62
7
100
AcDbLine
 10
7.937209
 20
66.876991
 30
0.0
 11
7.664466
 21
66.218527
 31
0.0
  0
LINE
  5
107
100
AcDbEntity
  8
Holes
 62
7
100
AcDbLine
 10
7.664466
 20
66.218527
 30
0.0
 11
7.006002
 21
65.945784
 31
0.0
  0
LINE
  5
108
100
AcDbEntity
  8
Holes
 62
7
100
AcDbLine
 10
7.006002
 20
65.945784
 30
0.0
 11
6.347538
 21
66.218527
 31
0.0
  0
LINE
  5
109
100
AcDbEntity
  8
Holes
 62
7
100
AcDbLine
 10
6.347538
 20
66.218527
 30
0.0
 11
6.074793
 21
66.876991
 31
0.0
  0
LINE
  5
10a
100
AcDbEntity
  8
Holes
 62
7
100
AcDbLine
 10
6.074793
 20
66.876991
 30
0.0
 11
6.347538
 21
67.535455
 31
0.0
  0
LINE
  5
10b
100
AcDbEntity
  8
Holes
 62
7
100
AcDbLine
 10
6.347538
 20
67.535455
 30
0.0
 11
7.006002
 21
67.808200
 31
0.0
  0
LINE
  5
10c
100
AcDbEntity
  8
Holes
 62
7
100
AcDbLine
 10
17.037112
 20
73.897201
 30
0.0
 11
17.695575
 21
73.624458
 31
0.0
  0
LINE
  5
10d
100
AcDbEntity
  8
Holes
 62
7
100
AcDbLine
 10
17.695575
 20
73.624458
 30
0.0
 11
17.968318
 21
72.965991
 31
0.0
  0
LINE
  5
10e
100
AcDbEntity
  8
Holes
 62
7
100
AcDbLine
 10
17.968318
 20
72.965991
 30
0.0
 11
17.695575
 21
72.307528
 31
0.0
  0
LINE
  5
10f
100
AcDbEntity
  8
Holes
 62
7
100
AcDbLine
 10
17.695575
 20
72.307528
 30
0.0
 11
17.037112
 21
72.034785
 31
0.0
  0
LINE
  5
110
100
AcDbEntity
  8
Holes
 62
7
100
AcDbLine
 10
17.037112
 20
72.034785
 30
0.0
 11
16.378648
 21
72.307528
 31
0.0
  0
LINE
  5
111
100
AcDbEntity
  8
Holes
 62
7
100
AcDbLine
 10
16.378648
 20
72.307528
 30
0.0
 11
16.105902
 21
72.965991
 31
0.0
  0
LINE
  5
112
100
AcDbEntity
  8
Holes
 62
7
100
AcDbLine
 10
16.105902
 20
72.965991
 30
0.0
 11
16.378648
 21
73.624458
 31
0.0
  0
LINE
  5
113
100
AcDbEntity
  8
Holes
 62
7
100
AcDbLine
 10
16.378648
 20
73.624458
 30
0.0
 11
17.037112
 21
73.897201
 31
0.0
  0
LINE
  5
114
100
AcDbEntity
  8
Holes
 62
7
100
AcDbLine
 10
40.010001
 20
70.928308
 30
0.0
 11
40.668465
 21
70.655568
 31
0.0
  0
LINE
  5
115
100
AcDbEntity
  8
Holes
 62
7
100
AcDbLine
 10
40.668465
 20
70.655568
 30
0.0
 11
40.941207
 21
69.997104
 31
0.0
  0
LINE
  5
116
100
AcDbEntity
  8
Holes
 62
7
100
AcDbLine
 10
40.941207
 20
69.997104
 30
0.0
 11
40.668465
 21
69.338640
 31
0.0
  0
LINE
  5
117
100
AcDbEntity
  8
Holes
 62
7
100
AcDbLine
 10
40.668465
 20
69.338640
 30
0.0
 11
40.010001
 21
69.065895
 31
0.0
  0
LINE
  5
118
100
AcDbEntity
  8
Holes
 62
7
100
AcDbLine
 10
40.010001
 20
69.065895
 30
0.0
 11
39.351537
 21
69.338640
 31
0.0
  0
LINE
  5
119
100
AcDbEntity
  8
Holes
 62
7
100
AcDbLine
 10
39.351537
 20
69.338640
 30
0.0
 11
39.078792
 21
69.997104
 31
0.0
  0
LINE
  5
11a
100
AcDbEntity
  8
Holes
 62
7
100
AcDbLine
 10
39.078792
 20
69.997104
 30
0.0
 11
39.351537
 21
70.655568
 31
0.0
  0
LINE
  5
11b
100
AcDbEntity
  8
Holes
 62
7
100
AcDbLine
 10
39.351537
 20
70.655568
 30
0.0
 11
40.010001
 21
70.928308
 31
0.0
  0
LINE
  5
11c
100
AcDbEntity
  8
Holes
 62
7
100
AcDbLine
 10
6.994000
 20
27.931202
 30
0.0
 11
7.652463
 21
27.658459
 31
0.0
  0
LINE
  5
11d
100
AcDbEntity
  8
Holes
 62
7
100
AcDbLine
 10
7.652463
 20
27.658459
 30
0.0
 11
7.925209
 21
26.999995
 31
0.0
  0
LINE
  5
11e
100
AcDbEntity
  8
Holes
 62
7
100
AcDbLine
 10
7.925209
 20
26.999995
 30
0.0
 11
7.652463
 21
26.341529
 31
0.0
  0
LINE
  5
11f
100
AcDbEntity
  8
Holes
 62
7
100
AcDbLine
 10
7.652463
 20
26.341529
 30
0.0
 11
6.994000
 21
26.068786
 31
0.0
  0
LINE
  5
120
100
AcDbEntity
  8
Holes
 62
7
100
AcDbLine
 10
6.994000
 20
26.068786
 30
0.0
 11
6.335538
 21
26.341529
 31
0.0
  0
LINE
  5
121
100
AcDbEntity
  8
Holes
 62
7
100
AcDbLine
 10
6.335538
 20
26.341529
 30
0.0
 11
6.062793
 21
26.999995
 31
0.0
  0
LINE
  5
122
100
AcDbEntity
  8
Holes
 62
7
100
AcDbLine
 10
6.062793
 20
26.999995
 30
0.0
 11
6.335538
 21
27.658459
 31
0.0
  0
LINE
  5
123
100
AcDbEntity
  8
Holes
 62
7
100
AcDbLine
 10
6.335538
 20
27.658459
 30
0.0
 11
6.994000
 21
27.931202
 31
0.0
  0
LINE
  5
124
100
AcDbEntity
  8
Holes
 62
7
100
AcDbLine
 10
17.025114
 20
34.020200
 30
0.0
 11
17.683578
 21
33.747460
 31
0.0
  0
LINE
  5
125
100
AcDbEntity
  8
Holes
 62
7
100
AcDbLine
 10
17.683578
 20
33.747460
 30
0.0
 11
17.956321
 21
33.088996
 31
0.0
  0
LINE
  5
126
100
AcDbEntity
  8
Holes
 62
7
100
AcDbLine
 10
17.956321
 20
33.088996
 30
0.0
 11
17.683578
 21
32.430529
 31
0.0
  0
LINE
  5
127
100
AcDbEntity
  8
Holes
 62
7
100
AcDbLine
 10
17.683578
 20
32.430529
 30
0.0
 11
17.025114
 21
32.157787
 31
0.0
  0
LINE
  5
128
100
AcDbEntity
  8
Holes
 62
7
100
AcDbLine
 10
17.025114
 20
32.157787
 30
0.0
 11
16.366647
 21
32.430529
 31
0.0
  0
LINE
  5
129
100
AcDbEntity
  8
Holes
 62
7
100
AcDbLine
 10
16.366647
 20
32.430529
 30
0.0
 11
16.093905
 21
33.088996
 31
0.0
  0
LINE
  5
12a
100
AcDbEntity
  8
Holes
 62
7
100
AcDbLine
 10
16.093905
 20
33.088996
 30
0.0
 11
16.366647
 21
33.747460
 31
0.0
  0
LINE
  5
12b
100
AcDbEntity
  8
Holes
 62
7
100
AcDbLine
 10
16.366647
 20
33.747460
 30
0.0
 11
17.025114
 21
34.020200
 31
0.0
  0
LINE
  5
12c
100
AcDbEntity
  8
Holes
 62
7
100
AcDbLine
 10
39.998004
 20
31.051312
 30
0.0
 11
40.656468
 21
30.778570
 31
0.0
  0
LINE
  5
12d
100
AcDbEntity
  8
Holes
 62
7
100
AcDbLine
 10
40.656468
 20
30.778570
 30
0.0
 11
40.929210
 21
30.120106
 31
0.0
  0
LINE
  5
12e
100
AcDbEntity
  8
Holes
 62
7
100
AcDbLine
 10
40.929210
 20
30.120106
 30
0.0
 11
40.656468
 21
29.461642
 31
0.0
  0
LINE
  5
12f
100
AcDbEntity
  8
Holes
 62
7
100
AcDbLine
 10
40.656468
 20
29.461642
 30
0.0
 11
39.998004
 21
29.188897
 31
0.0
  0
LINE
  5
130
100
AcDbEntity
  8
Holes
 62
7
100
AcDbLine
 10
39.998004
 20
29.188897
 30
0.0
 11
39.339540
 21
29.461642
 31
0.0
  0
LINE
  5
131
100
AcDbEntity
  8
Holes
 62
7
100
AcDbLine
 10
39.339540
 20
29.461642
 30
0.0
 11
39.066795
 21
30.120106
 31
0.0
  0
LINE
  5
132
100
AcDbEntity
  8
Holes
 62
7
100
AcDbLine
 10
39.066795
 20
30.120106
 30
0.0
 11
39.339540
 21
30.778570
 31
0.0
  0
LINE
  5
133
100
AcDbEntity
  8
Holes
 62
7
100
AcDbLine
 10
39.339540
 20
30.778570
 30
0.0
 11
39.998004
 21
31.051312
 31
0.0
  0
LINE
  5
134
100
AcDbEntity
  8
Holes
 62
7
100
AcDbLine
 10
55.000000
 20
17.868402
 30
0.0
 11
55.614056
 21
17.614055
 31
0.0
  0
LINE
  5
135
100
AcDbEntity
  8
Holes
 62
7
100
AcDbLine
 10
55.614056
 20
17.614055
 30
0.0
 11
55.868403
 21
16.999998
 31
0.0
  0
LINE
  5
136
100
AcDbEntity
  8
Holes
 62
7
100
AcDbLine
 10
55.868403
 20
16.999998
 30
0.0
 11
55.614056
 21
16.385942
 31
0.0
  0
LINE
  5
137
100
AcDbEntity
  8
Holes
 62
7
100
AcDbLine
 10
55.614056
 20
16.385942
 30
0.0
 11
55.000000
 21
16.131592
 31
0.0
  0
LINE
  5
138
100
AcDbEntity
  8
Holes
 62
7
100
AcDbLine
 10
55.000000
 20
16.131592
 30
0.0
 11
54.385944
 21
16.385942
 31
0.0
  0
LINE
  5
139
100
AcDbEntity
  8
Holes
 62
7
100
AcDbLine
 10
54.385944
 20
16.385942
 30
0.0
 11
54.131594
 21
16.999998
 31
0.0
  0
LINE
  5
13a
100
AcDbEntity
  8
Holes
 62
7
100
AcDbLine
 10
54.131594
 20
16.999998
 30
0.0
 11
54.385944
 21
17.614055
 31
0.0
  0
LINE
  5
13b
100
AcDbEntity
  8
Holes
 62
7
100
AcDbLine
 10
54.385944
 20
17.614055
 30
0.0
 11
55.000000
 21
17.868402
 31
0.0
  0
LINE
  5
13c
100
AcDbEntity
  8
Holes
 62
7
100
AcDbLine
 10
55.000000
 20
27.868387
 30
0.0
 11
55.614056
 21
27.614049
 31
0.0
  0
LINE
  5
13d
100
AcDbEntity
  8
Holes
 62
7
100
AcDbLine
 10
55.614056
 20
27.614049
 30
0.0
 11
55.868403
 21
26.999990
 31
0.0
  0
LINE
  5
13e
100
AcDbEntity
  8
Holes
 62
7
100
AcDbLine
 10
55.868403
 20
26.999990
 30
0.0
 11
55.614056
 21
26.385931
 31
0.0
  0
LINE
  5
13f
100
AcDbEntity
  8
Holes
 62
7
100
AcDbLine
 10
55.614056
 20
26.385931
 30
0.0
 11
55.000000
 21
26.131592
 31
0.0
  0
LINE
  5
140
100
AcDbEntity
  8
Holes
 62
7
100
AcDbLine
 10
55.000000
 20
26.131592
 30
0.0
 11
54.385944
 21
26.385931
 31
0.0
  0
LINE
  5
141
100
AcDbEntity
  8
Holes
 62
7
100
AcDbLine
 10
54.385944
 20
26.385931
 30
0.0
 11
54.131594
 21
26.999990
 31
0.0
  0
LINE
  5
142
100
AcDbEntity
  8
Holes
 62
7
100
AcDbLine
 10
54.131594
 20
26.999990
 30
0.0
 11
54.385944
 21
27.614049
 31
0.0
  0
LINE
  5
143
100
AcDbEntity
  8
Holes
 62
7
100
AcDbLine
 10
54.385944
 20
27.614049
 30
0.0
 11
55.000000
 21
27.868387
 31
0.0
  0
LINE
  5
144
100
AcDbEntity
  8
Holes
 62
7
100
AcDbLine
 10
104.999999
 20
17.868405
 30
0.0
 11
105.614055
 21
17.614057
 31
0.0
  0
LINE
  5
145
100
AcDbEntity
  8
Holes
 62
7
100
AcDbLine
 10
105.614055
 20
17.614057
 30
0.0
 11
105.868402
 21
17.000001
 31
0.0
  0
LINE
  5
146
100
AcDbEntity
  8
Holes
 62
7
100
AcDbLine
 10
105.868402
 20
17.000001
 30
0.0
 11
105.614055
 21
16.385945
 31
0.0
  0
LINE
  5
147
100
AcDbEntity
  8
Holes
 62
7
100
AcDbLine
 10
105.614055
 20
16.385945
 30
0.0
 11
104.999999
 21
16.131595
 31
0.0
  0
LINE
  5
148
100
AcDbEntity
  8
Holes
 62
7
100
AcDbLine
 10
104.999999
 20
16.131595
 30
0.0
 11
104.385943
 21
16.385945
 31
0.0
  0
LINE
  5
149
100
AcDbEntity
  8
Holes
 62
7
100
AcDbLine
 10
104.385943
 20
16.385945
 30
0.0
 11
104.131593
 21
17.000001
 31
0.0
  0
LINE
  5
14a
100
AcDbEntity
  8
Holes
 62
7
100
AcDbLine
 10
104.131593
 20
17.000001
 30
0.0
 11
104.385943
 21
17.614057
 31
0.0
  0
LINE
  5
14b
100
AcDbEntity
  8
Holes
 62
7
100
AcDbLine
 10
104.385943
 20
17.614057
 30
0.0
 11
104.999999
 21
17.868405
 31
0.0
  0
LINE
  5
14c
100
AcDbEntity
  8
Holes
 62
7
100
AcDbLine
 10
104.999999
 20
27.868390
 30
0.0
 11
105.614055
 21
27.614052
 31
0.0
  0
LINE
  5
14d
100
AcDbEntity
  8
Holes
 62
7
100
AcDbLine
 10
105.614055
 20
27.614052
 30
0.0
 11
105.868402
 21
26.999992
 31
0.0
  0
LINE
  5
14e
100
AcDbEntity
  8
Holes
 62
7
100
AcDbLine
 10
105.868402
 20
26.999992
 30
0.0
 11
105.614055
 21
26.385933
 31
0.0
  0
LINE
  5
14f
100
AcDbEntity
  8
Holes
 62
7
100
AcDbLine
 10
105.614055
 20
26.385933
 30
0.0
 11
104.999999
 21
26.131595
 31
0.0
  0
LINE
  5
150
100
AcDbEntity
  8
Holes
 62
7
100
AcDbLine
 10
104.999999
 20
26.131595
 30
0.0
 11
104.385943
 21
26.385933
 31
0.0
  0
LINE
  5
151
100
AcDbEntity
  8
Holes
 62
7
100
AcDbLine
 10
104.385943
 20
26.385933
 30
0.0
 11
104.131593
 21
26.999992
 31
0.0
  0
LINE
  5
152
100
AcDbEntity
  8
Holes
 62
7
100
AcDbLine
 10
104.131593
 20
26.999992
 30
0.0
 11
104.385943
 21
27.614052
 31
0.0
  0
LINE
  5
153
100
AcDbEntity
  8
Holes
 62
7
100
AcDbLine
 10
104.385943
 20
27.614052
 30
0.0
 11
104.999999
 21
27.868390
 31
0.0
  0
LINE
  5
154
100
AcDbEntity
  8
Holes
 62
7
100
AcDbLine
 10
175.009516
 20
50.877912
 30
0.0
 11
175.623573
 21
50.623573
 31
0.0
  0
LINE
  5
155
100
AcDbEntity
  8
Holes
 62
7
100
AcDbLine
 10
175.623573
 20
50.623573
 30
0.0
 11
175.877920
 21
50.009514
 31
0.0
  0
LINE
  5
156
100
AcDbEntity
  8
Holes
 62
7
100
AcDbLine
 10
175.877920
 20
50.009514
 30
0.0
 11
175.623573
 21
49.395455
 31
0.0
  0
LINE
  5
157
100
AcDbEntity
  8
Holes
 62
7
100
AcDbLine
 10
175.623573
 20
49.395455
 30
0.0
 11
175.009516
 21
49.141116
 31
0.0
  0
LINE
  5
158
100
AcDbEntity
  8
Holes
 62
7
100
AcDbLine
 10
175.009516
 20
49.141116
 30
0.0
 11
174.395460
 21
49.395455
 31
0.0
  0
LINE
  5
159
100
AcDbEntity
  8
Holes
 62
7
100
AcDbLine
 10
174.395460
 20
49.395455
 30
0.0
 11
174.141110
 21
50.009514
 31
0.0
  0
LINE
  5
15a
100
AcDbEntity
  8
Holes
 62
7
100
AcDbLine
 10
174.141110
 20
50.009514
 30
0.0
 11
174.395460
 21
50.623573
 31
0.0
  0
LINE
  5
15b
100
AcDbEntity
  8
Holes
 62
7
100
AcDbLine
 10
174.395460
 20
50.623573
 30
0.0
 11
175.009516
 21
50.877912
 31
0.0
  0
ENDSEC
  0
SECTION
  2
OBJECTS
  0
DICTIONARY
  5
C
330
0
100
AcDbDictionary
  3
ACAD_GROUP
350
D
  3
ACAD_MLINESTYLE
350
17
  0
DICTIONARY
  5
D
330
C
100
AcDbDictionary
  0
DICTIONARY
  5
1A
330
C
100
AcDbDictionary
  0
DICTIONARY
  5
17
330
C
100
AcDbDictionary
  3
STANDARD
350
18
  0
DICTIONARY
  5
19
330
C
100
AcDbDictionary
  0
ENDSEC
  0
EOF
